<?xml version="1.0" standalone="no"?>
<!DOCTYPE svg PUBLIC "-//W3C//DTD SVG 20010904//EN"
 "http://www.w3.org/TR/2001/REC-SVG-20010904/DTD/svg10.dtd">
<svg version="1.0" xmlns="http://www.w3.org/2000/svg"
 width="1187.000000pt" height="1187.000000pt" viewBox="0 0 1187.000000 1187.000000"
 preserveAspectRatio="xMidYMid meet">
<metadata>
Created by potrace 1.14, written by Peter Selinger 2001-2017
</metadata>
<g transform="translate(0.000000,1187.000000) scale(0.100000,-0.100000)"
fill="#000000" stroke="none">
<path d="M5629 11866 c-2 -2 -56 -6 -119 -10 -63 -3 -126 -8 -140 -10 -14 -3
-56 -7 -95 -11 -59 -5 -179 -22 -360 -50 -22 -4 -116 -22 -209 -42 -820 -170
-1606 -523 -2296 -1031 -355 -262 -726 -610 -1005 -942 -44 -52 -83 -97 -86
-100 -18 -15 -237 -314 -315 -430 -82 -122 -244 -384 -244 -396 0 -2 -11 -22
-24 -43 -27 -42 -146 -276 -196 -386 -239 -519 -400 -1065 -479 -1625 -23
-161 -28 -202 -36 -300 -4 -41 -9 -86 -12 -100 -9 -44 -11 -751 -2 -850 4 -52
10 -126 14 -165 96 -1117 568 -2280 1284 -3160 255 -314 588 -649 886 -891
649 -528 1446 -930 2255 -1138 186 -48 421 -96 590 -121 95 -14 138 -19 280
-34 52 -6 120 -13 150 -17 87 -10 755 -12 860 -3 202 17 236 20 280 25 25 2
59 7 75 9 17 3 48 7 70 10 22 3 54 7 70 10 17 3 48 7 70 11 374 55 854 189
1270 356 137 55 539 247 660 315 197 112 472 289 645 418 90 67 292 228 326
260 6 5 54 48 107 95 172 152 421 410 589 612 307 366 547 736 763 1173 175
354 295 663 395 1019 35 126 91 354 104 428 2 15 11 63 20 105 8 43 18 96 21
118 3 22 10 67 15 101 40 248 55 490 55 859 0 349 -4 432 -35 705 -69 599
-240 1204 -502 1779 -45 99 -161 328 -203 401 -21 36 -45 79 -55 96 -83 144
-202 328 -316 486 -61 85 -231 306 -244 318 -3 3 -32 37 -65 75 -139 162 -416
445 -565 576 -476 420 -1035 778 -1575 1008 -55 23 -109 47 -120 52 -138 63
-538 195 -772 254 -153 39 -408 93 -518 110 -22 3 -67 10 -100 15 -33 5 -87
12 -120 16 -33 3 -68 8 -78 10 -9 1 -55 6 -102 9 -46 4 -97 9 -112 11 -34 6
-748 15 -754 10z"/>
</g>
</svg>
